<svg xmlns="http://www.w3.org/2000/svg" xmlns:xlink="http://www.w3.org/1999/xlink" viewBox="0 0 469.04 72.75"><defs><style>.cls-1{fill:none;clip-rule:evenodd;}.cls-2{clip-path:url(#clip-path);}.cls-3{fill:url(#linear-gradient);}.cls-4{fill:#8796b0;}</style><clipPath id="clip-path"><path class="cls-1" d="M7.43,25.33h0Zm7.09,13.53a2.38,2.38,0,0,0,1.58,0L18,42.16l1,1.67-1.64,1L9.71,49.17a5.2,5.2,0,0,0-.7-.78ZM7.44,25.32A5.79,5.79,0,0,0,8.11,25l5.57,9.65a2.46,2.46,0,0,0-.53,3.09,2.77,2.77,0,0,0,.5.62L8.21,47.8a4.93,4.93,0,0,0-.77-.37ZM60.57,47.13a5.46,5.46,0,0,0-1,0A5.46,5.46,0,0,1,60.57,47.13ZM60.31,16a4.72,4.72,0,0,1,.26,9.43V47.13a5.05,5.05,0,0,1,2,.64,5,5,0,1,1-5,8.61,3.84,3.84,0,0,1-.66-.45l-9.57,5.53L37.78,67a5.29,5.29,0,0,1,.07.8,5,5,0,0,1-10,0A5.29,5.29,0,0,1,28,67L18.4,61.46,8.82,55.93a3.84,3.84,0,0,1-.66.45,5,5,0,0,1-5-8.61,5.35,5.35,0,0,1,.73-.34V25.32A5.85,5.85,0,0,1,3.19,25a5,5,0,0,1,5-8.61,4.5,4.5,0,0,1,.66.45l9.57-5.52L28,5.77A5.29,5.29,0,0,1,27.9,5a5,5,0,0,1,10,0,4.4,4.4,0,0,1-.06.73L57.41,17A4.73,4.73,0,0,1,60.31,16ZM17.41,28l-7.7-4.44a4.93,4.93,0,0,1-.78.86l5.62,9.74a2.43,2.43,0,0,1,1.51,0l2-3.52,1-1.7Zm.16,2h0a2.46,2.46,0,0,1-.22-1.83A2.47,2.47,0,0,0,17.57,30Zm2.9,1.15a2.5,2.5,0,0,1-1.3.06h0A2.44,2.44,0,0,0,20.47,31.18Zm-1.52,0-2,3.51a2.47,2.47,0,0,1,0,3.64l1.91,3.32,1,1.68,1.67-1,7-4.07a4.68,4.68,0,0,1,0-3.83l-7-4-1.66-1Zm2.93-10.56a2.76,2.76,0,0,1,.28-.72A2.42,2.42,0,0,1,25,18.79L30.43,9.3a5.43,5.43,0,0,1-.7-.48L10.58,19.88a4.53,4.53,0,0,1,.07.74Zm10.5-1.94V9.92a5,5,0,0,1-1-.22l-5.52,9.56a2.38,2.38,0,0,1,.81,1.36h5.74ZM22,28a2.51,2.51,0,0,1,.1,1.24A2.49,2.49,0,0,0,22,28Zm8.6-6.41h-4a2.76,2.76,0,0,1-.28.72,2.42,2.42,0,0,1-2.93,1.07L21.36,27h0l-.93,1.61,1.64.94,7,4a4.69,4.69,0,0,1,3.32-1.92V21.61Zm-8.75,30a2.89,2.89,0,0,1,.28-.74,2.56,2.56,0,0,1,.51-.62l-2.27-3.92-.94-1.63-1.63.94L10.21,50a4.82,4.82,0,0,1,.42,1.56Zm3.17,2.78a2.44,2.44,0,0,1-3.16-1.79H10.62a2.89,2.89,0,0,1,0,.29l19.15,11a4.39,4.39,0,0,1,.61-.42Zm7.32-4.67V41.07a4.66,4.66,0,0,1-3.32-1.92L22,43.23h0l-1.67,1,1,1.64,2.27,3.93a2.43,2.43,0,0,1,3.11,1.84h5.72Zm0,4.74h0V52.59H26.66a2.63,2.63,0,0,1-.28.7,2.18,2.18,0,0,1-.46.58l5.32,9.22a4.73,4.73,0,0,1,1.14-.26ZM39.8,20.62a2.52,2.52,0,0,1,.28-.78,2.78,2.78,0,0,1,.53-.64L35,9.47a5.12,5.12,0,0,1-1.62.45v10.7H39.8ZM43,23.34a2.41,2.41,0,0,1-2-.18,2.45,2.45,0,0,1-1.15-1.55H33.37V31.68a4.69,4.69,0,0,1,3.32,1.92l7.57-4.37h0l1.61-.93-.94-1.62Zm1.55-1.73a2.67,2.67,0,0,1-.26.66,3.11,3.11,0,0,1-.44.56l1.92,3.34.95,1.63,1.69-1,7.5-4.34a5,5,0,0,1-.25-.88ZM43.41,19a2.41,2.41,0,0,1,1.17,1.67h11c0-.18,0-.36,0-.54L36.07,8.78,35.85,9l5.64,9.78A2.42,2.42,0,0,1,43.41,19ZM20.24,26.44a2.46,2.46,0,0,0-1.53.16A2.51,2.51,0,0,1,20.24,26.44ZM49.16,37.7a2.56,2.56,0,0,1-.62-.88,2.49,2.49,0,0,1,.3-2.46,2.52,2.52,0,0,0-.39,2.2,2.39,2.39,0,0,1-.09-.66,2.46,2.46,0,0,1,.84-1.84l0-.05-1.84-3.18-1-1.67-1.62.93-7.56,4.37a4.68,4.68,0,0,1,.41,1.92,4.17,4.17,0,0,1-.06.71l7.92,4.57,1,.61.32-.55Zm2.43.5a2.47,2.47,0,0,1-1.58,0l-2.32,4-.31.54,1,.58,8.5,4.91.35-.27Zm.81-4.14A2.42,2.42,0,0,1,53,36.9a2.47,2.47,0,0,0-.12-2.33l0,0A2.45,2.45,0,0,1,53,37a2.76,2.76,0,0,1-.53.69l5.67,9.81a5,5,0,0,1,1.47-.38V25.42a4.67,4.67,0,0,1-1.8-.68L52.43,34h0Zm-1.6-.6a2.6,2.6,0,0,1,.74.11l0-.06L57,24.12a6.15,6.15,0,0,1-.61-.74l-7.45,4.3-1.7,1,1,1.68L50,33.52l0,0A2.55,2.55,0,0,1,50.8,33.46ZM39.74,54A2.41,2.41,0,0,1,39,52.59H33.37V62.83a5.29,5.29,0,0,1,1.13.25Zm4-1.42a2.44,2.44,0,0,1-2.4,2,2.67,2.67,0,0,1-.75-.11l-5.2,9a4.55,4.55,0,0,1,.62.43l19.15-11a2.89,2.89,0,0,1,0-.29ZM43,50.37a2.49,2.49,0,0,1,.73,1.23h11.4a2.51,2.51,0,0,1,0-.27l-8.5-4.9-1-.61-.33.57Zm-1.64-.63a2.28,2.28,0,0,1,.78.13l2.29-4,.33-.58-1.09-.63-7.91-4.57a4.64,4.64,0,0,1-2.38,1v8.62l.23.06-.23-.06V51.6H39A2.44,2.44,0,0,1,41.35,49.74Zm-31.14-27a4.93,4.93,0,0,0,.35-1.11H21.88a2.45,2.45,0,0,0,.71,1.27L20.5,26.51l-.93,1.61-1.65-.95Z"/></clipPath><linearGradient id="linear-gradient" x1="-7.41" y1="69.18" x2="67.75" y2="7.98" gradientUnits="userSpaceOnUse"><stop offset="0" stop-color="#2491eb"/><stop offset="1" stop-color="#ba25fa"/></linearGradient></defs><title>Asset 3</title><g id="Layer_2" data-name="Layer 2"><g id="Layer_1-2" data-name="Layer 1"><g class="cls-2"><rect class="cls-3" width="65.75" height="72.75"/></g><path class="cls-4" d="M455.89,55.31c7.74,0,13.15-4.1,13.15-11v-.11c0-6.1-4.05-8.89-11.83-10.78-7-1.68-8.73-2.95-8.73-5.79v-.1c0-2.42,2.21-4.37,6-4.37,3.37,0,6.68,1.32,10,3.79l3.47-4.89a20.4,20.4,0,0,0-13.36-4.63c-7.31,0-12.57,4.37-12.57,10.68v.1c0,6.79,4.42,9.1,12.25,11,6.84,1.58,8.31,3,8.31,5.63V45c0,2.79-2.52,4.63-6.52,4.63-4.57,0-8.1-1.74-11.62-4.79l-3.9,4.63a22.68,22.68,0,0,0,15.36,5.89m-40.95.06c9.63,0,15.84-5.53,15.84-16.52V18h-6.47V39.16c0,6.79-3.53,10.26-9.26,10.26s-9.31-3.68-9.31-10.52V18h-6.47V39.16C399.27,49.84,405.37,55.37,414.94,55.37Zm-34.74-.58h6.47V18H380.2Zm-45.26,0h6.37V28.59l20.3,26.2H367V18h-6.37V43.43L340.94,18h-6Zm-38.58,0h27.56V49H302.83V39.11h18.46V33.33H302.83V23.75h20.83V18h-27.3Zm-27.12.63a23.51,23.51,0,0,0,15.37-5.73V34.22H268.93v5.63h9.42v6.89a15.08,15.08,0,0,1-8.89,2.79c-7.53,0-12.52-5.58-12.52-13.15v-.11c0-7.05,5.15-13,11.94-13a14.42,14.42,0,0,1,10.31,3.94l4.1-4.89c-3.79-3.21-7.73-5-14.15-5a18.77,18.77,0,0,0-19,19.05v.1C250.15,47.21,257.73,55.42,269.24,55.42Zm-61.88-.63h4V24.59l23.78,30.2h3.31V18h-4.05V47.48L211.25,18h-3.89Zm-18.28,0h4.16V18h-4.16Zm-31.21-3.21c-8.42,0-14.52-6.84-14.52-15.2v-.11c0-8.36,6-15.1,14.41-15.1S172.28,28,172.28,36.38v.1C172.28,44.85,166.28,51.58,157.87,51.58Zm-.11,3.84c11.21,0,18.83-8.89,18.83-19v-.11c0-10.15-7.52-18.94-18.72-18.94S139,26.22,139,36.38v.1C139,46.63,146.56,55.42,157.76,55.42Zm-41.37,0c6.68,0,10.89-2.58,14.73-6.47l-2.74-2.68c-3.52,3.36-6.83,5.31-11.88,5.31-8.1,0-14.26-6.68-14.26-15.2v-.11c0-8.47,6.1-15.1,14.26-15.1,5,0,8.47,2.11,11.57,5l2.84-3a19.17,19.17,0,0,0-14.36-5.84c-10.84,0-18.62,8.63-18.62,19.05v.1C97.93,47.06,105.76,55.42,116.39,55.42Z"/></g></g></svg>