<svg xmlns="http://www.w3.org/2000/svg" viewBox="0 0 1000 1000"><path d="M249.7 11.75c-6.52 2.68-12.27 11.31-12.27 18.79 0 8.63-13.8-5.17 256.88 256.3C615.08 403.39 713.8 499.44 713.8 500.4c0 .96-106.58 104.86-236.94 230.81-130.35 125.94-237.51 230.42-238.09 232.33-2.68 6.9-1.34 14.38 4.02 20.32 4.41 4.98 6.9 6.13 13.61 6.13 7.09 0 9.39-1.15 17.06-8.63 59.43-56.92 468.33-451.63 477.34-460.64 10.73-10.93 11.88-12.84 11.88-20.13 0-7.47-.96-9.2-13.8-22.04C696.93 426.6 266.94 13.1 263.11 11.57c-5.74-2.12-8.04-2.12-13.41.18z"/></svg>