<?xml version="1.0" encoding="UTF-8"?>
<svg width="43px" height="49px" viewBox="0 0 43 49" version="1.1" xmlns="http://www.w3.org/2000/svg" xmlns:xlink="http://www.w3.org/1999/xlink">
    <!-- Generator: Sketch 55.2 (78181) - https://sketchapp.com -->
    <title>Group 118</title>
    <desc>Created with Sketch.</desc>
    <defs>
        <path d="M7.0439,15.578 C7.1496,15.3428 7.2256,15.101 7.2723,14.8561 L14.666,14.8561 C14.7309,15.1687 14.8893,15.4604 15.1283,15.6866 L13.7603,18.0561 L13.1545,19.1055 L12.0785,18.485 L7.0439,15.578 Z M27.3757,33.2217 C27.5537,33.2217 27.7246,33.2506 27.8848,33.3051 L29.3797,30.7159 L29.5972,30.3386 L28.8871,29.9279 L23.7178,26.9436 C23.2787,27.2806 22.7467,27.5017 22.1676,27.5626 L22.1676,33.192 C22.2174,33.2025 22.2682,33.2144 22.3172,33.2283 C22.2673,33.2144 22.2169,33.2025 22.1661,33.192 L22.1661,34.4355 L23.4247,34.4355 L25.8291,34.4355 C25.9989,33.7388 26.6262,33.2217 27.3757,33.2217 Z M28.4443,33.6339 C28.6759,33.8445 28.8454,34.1223 28.9214,34.4355 L36.3694,34.4355 C36.3754,34.3774 36.3827,34.3187 36.391,34.2606 L30.8458,31.0589 L30.1598,30.6632 L29.9447,31.0351 L28.4443,33.6339 Z M28.9438,35.0844 C28.8142,35.8339 28.1614,36.4039 27.3757,36.4039 C27.2059,36.4039 27.0423,36.3773 26.8889,36.3279 L23.4947,42.2081 C23.6353,42.2915 23.77,42.385 23.8958,42.4885 L36.3969,35.2706 C36.3873,35.2088 36.3791,35.147 36.3725,35.0844 L28.9438,35.0844 Z M26.324,36.0073 C26.0575,35.7729 25.8702,35.4498 25.8075,35.0844 L23.4216,35.0844 L22.1661,35.0844 L22.1676,36.3109 L22.1676,41.7719 C22.4221,41.798 22.6684,41.8529 22.9023,41.9334 L26.324,36.0073 Z M33.5467,22.5929 C33.7134,22.5929 33.8749,22.619 34.0266,22.6666 L34.049,22.6287 L37.5914,16.4925 C37.4435,16.3454 37.3094,16.1838 37.1926,16.0095 L32.3255,18.8197 L31.2129,19.4621 L31.8499,20.565 L33.0421,22.6301 L33.0637,22.6672 C33.2162,22.619 33.3777,22.5929 33.5467,22.5929 Z M34.5924,22.985 C34.9263,23.2769 35.1378,23.7055 35.1378,24.184 C35.1378,24.4176 35.087,24.6387 34.9972,24.8388 C35.222,24.3567 35.1964,23.7798 34.9175,23.3178 L34.9376,23.3504 C35.2256,23.8498 35.2151,24.44 34.9606,24.9134 C34.8736,25.0823 34.7574,25.2334 34.6182,25.3598 L38.3185,31.7681 C38.623,31.6372 38.9467,31.5533 39.2763,31.5204 L39.2763,17.3446 C38.8506,17.2786 38.454,17.1238 38.1051,16.9018 L34.6122,22.9515 L34.6117,22.951 L34.5924,22.985 Z M34.0595,25.6904 C33.8987,25.7454 33.7261,25.7751 33.5467,25.7751 C33.3658,25.7751 33.1923,25.7454 33.0311,25.6895 L31.5134,28.3181 L31.3104,28.6693 L31.9749,29.0534 L37.5223,32.2565 C37.596,32.1947 37.6719,32.1366 37.7499,32.0822 L34.0595,25.6904 Z M32.4726,25.3584 C32.2994,25.2005 32.1617,25.0041 32.0724,24.7838 C31.8416,24.245 31.9281,23.6333 32.2697,23.1831 C31.957,23.5961 31.8714,24.1356 32.0151,24.618 C31.9757,24.4803 31.9547,24.3351 31.9547,24.184 C31.9547,23.7061 32.1654,23.2784 32.4987,22.9867 L32.4803,22.9552 L31.2812,20.8769 L30.6508,19.7864 L29.5963,20.3952 L24.6601,23.2449 C24.8304,23.6273 24.9251,24.0508 24.9257,24.4967 C24.9251,24.6551 24.9132,24.8113 24.89,24.9624 L30.0601,27.9476 L30.7483,28.345 L30.9538,27.9893 L32.4726,25.3584 Z M13.5936,18.0102 C13.2671,17.9387 12.9164,17.9691 12.5941,18.1151 C12.9059,17.975 13.2574,17.937 13.5936,18.0102 Z M28.7176,13.1176 C29.1371,13.3602 29.4044,13.765 29.4855,14.2072 L36.6767,14.2072 C36.6804,14.0887 36.6903,13.9714 36.7073,13.8551 L23.9284,6.4771 C23.8808,6.5171 23.8326,6.5559 23.7833,6.5925 L27.4664,12.9724 C27.8714,12.8511 28.323,12.89 28.7176,13.1176 Z M29.4699,14.8561 C29.435,15.0035 29.3792,15.1486 29.2987,15.2869 C29.2199,15.4247 29.1224,15.546 29.0121,15.6495 L30.2715,17.8307 L30.8883,18.8994 L31.9936,18.2608 L36.8904,15.4335 C36.8176,15.2489 36.7617,15.0562 36.726,14.8561 L29.4699,14.8561 Z M28.4576,15.9879 C28.0344,16.1385 27.5497,16.1101 27.1302,15.8675 C26.7356,15.6398 26.4751,15.2677 26.3784,14.8561 L23.4692,14.8561 L22.1676,14.8561 L22.1676,16.046 L22.1676,21.4305 C23.0576,21.5234 23.8346,21.996 24.3355,22.6828 L29.2786,19.828 L29.2786,19.8289 L29.2786,19.828 L30.3265,19.224 L29.7162,18.1678 L28.4576,15.9879 Z M26.362,14.2078 C26.394,14.0329 26.455,13.8611 26.5488,13.699 C26.6426,13.5365 26.7608,13.3974 26.8957,13.2828 L23.2266,6.9273 C22.9,7.082 22.5429,7.1832 22.1676,7.2212 L22.1676,12.907 L22.1676,14.2078 L23.4916,14.2072 L26.362,14.2078 Z M21.5181,36.3004 L21.5173,36.3004 L21.5173,35.0844 L20.3168,35.0844 L17.7821,35.0844 C17.7478,35.2414 17.6891,35.3956 17.6049,35.5413 C17.5216,35.6865 17.4181,35.8129 17.3013,35.9195 L20.7752,41.9363 C21.0113,41.8538 21.2596,41.7988 21.5181,41.7719 L21.5181,36.3004 Z M21.5173,33.2039 L21.5173,27.5626 C20.6272,27.4697 19.8502,26.9971 19.3502,26.3109 L14.7414,28.9715 L14.7414,28.9715 L13.6531,29.5996 L14.2694,30.6669 L15.7511,33.2342 C16.1612,33.1049 16.6219,33.1412 17.0238,33.3728 C17.4354,33.6101 17.6996,34.0038 17.7866,34.4355 L20.3123,34.4355 L21.5173,34.4355 L21.5173,33.2039 Z M16.7432,36.25 C16.3242,36.3929 15.8486,36.3614 15.4364,36.1227 C15.033,35.8897 14.7703,35.5065 14.6779,35.0844 L7.3126,35.0844 C7.3058,35.1462 7.2976,35.2088 7.2879,35.2706 L19.7899,42.4879 C19.9143,42.3867 20.0458,42.2934 20.1844,42.2118 L16.7432,36.25 Z M14.6728,34.4355 C14.7062,34.2703 14.7657,34.1081 14.855,33.9539 C14.9443,33.7986 15.0569,33.6637 15.1847,33.552 L13.7039,30.9869 L13.0905,29.9248 L12.0255,30.5396 L7.043,33.4159 C7.1927,33.7456 7.2828,34.0903 7.3154,34.4355 L14.6728,34.4355 Z M20.386,14.8561 L17.7753,14.8561 C17.7418,15.0176 17.6823,15.1769 17.5953,15.3272 C17.2047,16.0035 16.3911,16.2842 15.681,16.0273 L14.3221,18.3807 L14.3221,18.3807 L13.7163,19.43 L14.7873,20.0486 L19.3502,22.6828 C19.8511,21.996 20.6281,21.5234 21.5181,21.4305 L21.5181,16.0112 L21.5181,16.0112 L21.5181,14.8561 L20.386,14.8561 Z M14.7666,19.0437 C14.8604,19.3079 14.8805,19.5871 14.8343,19.8527 C14.882,19.5797 14.8573,19.3014 14.7666,19.0437 Z M21.5181,12.9435 L21.5181,7.2204 C21.2857,7.1974 21.0618,7.1506 20.8466,7.0815 L17.2441,13.32 C17.5207,13.5521 17.7024,13.8679 17.7739,14.2072 L20.3622,14.2072 L21.5181,14.2072 L21.5181,12.9435 Z M14.666,14.2078 C14.7003,14.0471 14.7592,13.8894 14.8454,13.7398 C15.2204,13.0909 15.9849,12.8066 16.6732,13.0113 L20.2485,6.8187 C20.0869,6.7271 19.9327,6.6223 19.7899,6.5046 L7.2879,13.7233 C7.314,13.8826 7.3282,14.0448 7.3305,14.2078 L14.666,14.2078 Z M12.7511,21.1022 L11.4257,23.3988 C11.5493,23.5091 11.6573,23.6406 11.7457,23.7917 C12.1275,24.455 11.9838,25.2765 11.4444,25.7743 L12.6947,27.9399 L12.6947,27.9399 L13.3289,29.0378 L14.4227,28.406 L19.0248,25.749 C18.8544,25.3666 18.76,24.9423 18.76,24.4967 C18.76,24.0508 18.8544,23.6273 19.0248,23.2449 L14.4755,20.6186 L13.3921,19.9927 L12.7511,21.1022 Z M13.7447,21.1059 C13.4641,21.196 13.1701,21.2048 12.8926,21.141 L12.8912,21.141 L12.8702,21.1357 L12.8679,21.1351 C13.165,21.2057 13.4663,21.1938 13.7447,21.1059 Z M11.8509,20.3564 L11.85,20.3558 C11.6394,19.9763 11.5991,19.546 11.7057,19.1554 C11.5955,19.561 11.6522,19.9941 11.8509,20.3564 Z M11.742,19.04 L6.7187,16.139 C6.5677,16.3505 6.395,16.5373 6.206,16.7009 L9.878,23.0624 C10.2045,22.9606 10.5498,22.968 10.8647,23.0729 L12.1879,20.7793 L12.1885,20.7793 L12.8302,19.6682 L11.742,19.04 Z M39.7585,11.2169 C41.4604,11.2169 42.8412,12.5974 42.8418,14.3002 C42.8412,15.9463 41.5506,17.291 39.9252,17.3775 L39.9252,31.519 C40.3697,31.5635 40.8124,31.7004 41.224,31.9388 C42.7763,32.8354 43.3083,34.8202 42.4117,36.3719 C41.5157,37.9244 39.53,38.4565 37.9778,37.5596 C37.8244,37.4717 37.6807,37.3722 37.5475,37.2634 L31.2977,40.873 L25.047,44.4809 C25.0739,44.6505 25.0881,44.8245 25.0881,45.0025 C25.0881,46.7946 23.6353,48.2479 21.8424,48.2473002 C20.0498,48.2479 18.597,46.7946 18.597,45.0025 C18.597,44.8254 18.6112,44.6505 18.6387,44.4809 L12.388,40.8722 L6.1382,37.2634 C6.0041,37.3722 5.8607,37.4717 5.7073,37.5596 C4.1548,38.4565 2.17,37.9244 1.274,36.3719 C0.3774,34.8202 0.9094,32.8354 2.4617,31.9388 C2.6159,31.85 2.7735,31.7758 2.9336,31.714 L2.9336,24.4967 L2.9336,17.2791 C2.7735,17.2182 2.615,17.1431 2.4617,17.0552 C0.9094,16.1586 0.3774,14.1729 1.2734,12.6212 C2.1694,11.0687 4.1548,10.5366 5.7073,11.4335 C5.8613,11.522 6.0041,11.6209 6.1374,11.7303 L12.388,8.1218 L18.6387,4.5124 C18.6112,4.3426 18.597,4.1686 18.597,3.9914 C18.597,2.1994 20.0504,0.7458 21.8424,0.7458 C23.6353,0.7458 25.0881,2.1985 25.0881,3.9906 C25.0881,4.1536 25.0762,4.3137 25.0529,4.4691 L37.8653,11.8666 C38.3877,11.4596 39.0448,11.2169 39.7585,11.2169 Z M39.9252,31.519 C39.7086,31.4974 39.4906,31.498 39.2763,31.5198 C39.4906,31.498 39.7086,31.4974 39.9252,31.519 Z M5.2348,17.2786 C5.385,17.2219 5.531,17.1541 5.6722,17.0753 L9.3099,23.3764 C8.7347,23.8691 8.5732,24.7175 8.966,25.397 C9.0556,25.5512 9.1656,25.6844 9.292,25.7961 L5.7363,31.9549 C5.5755,31.8605 5.408,31.78 5.2354,31.7146 L5.2348,17.2786 Z M9.8547,26.1198 C10.1844,26.227 10.5469,26.2284 10.8877,26.1085 L12.1349,28.2696 L12.7662,29.3621 L11.6944,29.9806 L6.7193,32.8532 C6.5832,32.6642 6.429,32.4938 6.2624,32.3421 L9.8547,26.1198 Z" id="path-1"></path>
        <linearGradient x1="5.23768499%" y1="102.279296%" x2="98.6990124%" y2="18.0924812%" id="linearGradient-3">
            <stop stop-color="#2391EB" offset="0%"></stop>
            <stop stop-color="#B924F9" offset="100%"></stop>
        </linearGradient>
    </defs>
    <g id="Page-1" stroke="none" stroke-width="1" fill="none" fill-rule="evenodd">
        <g id="New-CG-Brand-Guidelines" transform="translate(-649.000000, -193.000000)">
            <g id="Group-118" transform="translate(649.000000, 193.000000)">
                <mask id="mask-2" fill="white">
                    <use xlink:href="#path-1"></use>
                </mask>
                <g id="Clip-117"></g>
                <path d="M7.0439,15.578 C7.1496,15.3428 7.2256,15.101 7.2723,14.8561 L14.666,14.8561 C14.7309,15.1687 14.8893,15.4604 15.1283,15.6866 L13.7603,18.0561 L13.1545,19.1055 L12.0785,18.485 L7.0439,15.578 Z M27.3757,33.2217 C27.5537,33.2217 27.7246,33.2506 27.8848,33.3051 L29.3797,30.7159 L29.5972,30.3386 L28.8871,29.9279 L23.7178,26.9436 C23.2787,27.2806 22.7467,27.5017 22.1676,27.5626 L22.1676,33.192 C22.2174,33.2025 22.2682,33.2144 22.3172,33.2283 C22.2673,33.2144 22.2169,33.2025 22.1661,33.192 L22.1661,34.4355 L23.4247,34.4355 L25.8291,34.4355 C25.9989,33.7388 26.6262,33.2217 27.3757,33.2217 Z M28.4443,33.6339 C28.6759,33.8445 28.8454,34.1223 28.9214,34.4355 L36.3694,34.4355 C36.3754,34.3774 36.3827,34.3187 36.391,34.2606 L30.8458,31.0589 L30.1598,30.6632 L29.9447,31.0351 L28.4443,33.6339 Z M28.9438,35.0844 C28.8142,35.8339 28.1614,36.4039 27.3757,36.4039 C27.2059,36.4039 27.0423,36.3773 26.8889,36.3279 L23.4947,42.2081 C23.6353,42.2915 23.77,42.385 23.8958,42.4885 L36.3969,35.2706 C36.3873,35.2088 36.3791,35.147 36.3725,35.0844 L28.9438,35.0844 Z M26.324,36.0073 C26.0575,35.7729 25.8702,35.4498 25.8075,35.0844 L23.4216,35.0844 L22.1661,35.0844 L22.1676,36.3109 L22.1676,41.7719 C22.4221,41.798 22.6684,41.8529 22.9023,41.9334 L26.324,36.0073 Z M33.5467,22.5929 C33.7134,22.5929 33.8749,22.619 34.0266,22.6666 L34.049,22.6287 L37.5914,16.4925 C37.4435,16.3454 37.3094,16.1838 37.1926,16.0095 L32.3255,18.8197 L31.2129,19.4621 L31.8499,20.565 L33.0421,22.6301 L33.0637,22.6672 C33.2162,22.619 33.3777,22.5929 33.5467,22.5929 Z M34.5924,22.985 C34.9263,23.2769 35.1378,23.7055 35.1378,24.184 C35.1378,24.4176 35.087,24.6387 34.9972,24.8388 C35.222,24.3567 35.1964,23.7798 34.9175,23.3178 L34.9376,23.3504 C35.2256,23.8498 35.2151,24.44 34.9606,24.9134 C34.8736,25.0823 34.7574,25.2334 34.6182,25.3598 L38.3185,31.7681 C38.623,31.6372 38.9467,31.5533 39.2763,31.5204 L39.2763,17.3446 C38.8506,17.2786 38.454,17.1238 38.1051,16.9018 L34.6122,22.9515 L34.6117,22.951 L34.5924,22.985 Z M34.0595,25.6904 C33.8987,25.7454 33.7261,25.7751 33.5467,25.7751 C33.3658,25.7751 33.1923,25.7454 33.0311,25.6895 L31.5134,28.3181 L31.3104,28.6693 L31.9749,29.0534 L37.5223,32.2565 C37.596,32.1947 37.6719,32.1366 37.7499,32.0822 L34.0595,25.6904 Z M32.4726,25.3584 C32.2994,25.2005 32.1617,25.0041 32.0724,24.7838 C31.8416,24.245 31.9281,23.6333 32.2697,23.1831 C31.957,23.5961 31.8714,24.1356 32.0151,24.618 C31.9757,24.4803 31.9547,24.3351 31.9547,24.184 C31.9547,23.7061 32.1654,23.2784 32.4987,22.9867 L32.4803,22.9552 L31.2812,20.8769 L30.6508,19.7864 L29.5963,20.3952 L24.6601,23.2449 C24.8304,23.6273 24.9251,24.0508 24.9257,24.4967 C24.9251,24.6551 24.9132,24.8113 24.89,24.9624 L30.0601,27.9476 L30.7483,28.345 L30.9538,27.9893 L32.4726,25.3584 Z M13.5936,18.0102 C13.2671,17.9387 12.9164,17.9691 12.5941,18.1151 C12.9059,17.975 13.2574,17.937 13.5936,18.0102 Z M28.7176,13.1176 C29.1371,13.3602 29.4044,13.765 29.4855,14.2072 L36.6767,14.2072 C36.6804,14.0887 36.6903,13.9714 36.7073,13.8551 L23.9284,6.4771 C23.8808,6.5171 23.8326,6.5559 23.7833,6.5925 L27.4664,12.9724 C27.8714,12.8511 28.323,12.89 28.7176,13.1176 Z M29.4699,14.8561 C29.435,15.0035 29.3792,15.1486 29.2987,15.2869 C29.2199,15.4247 29.1224,15.546 29.0121,15.6495 L30.2715,17.8307 L30.8883,18.8994 L31.9936,18.2608 L36.8904,15.4335 C36.8176,15.2489 36.7617,15.0562 36.726,14.8561 L29.4699,14.8561 Z M28.4576,15.9879 C28.0344,16.1385 27.5497,16.1101 27.1302,15.8675 C26.7356,15.6398 26.4751,15.2677 26.3784,14.8561 L23.4692,14.8561 L22.1676,14.8561 L22.1676,16.046 L22.1676,21.4305 C23.0576,21.5234 23.8346,21.996 24.3355,22.6828 L29.2786,19.828 L29.2786,19.8289 L29.2786,19.828 L30.3265,19.224 L29.7162,18.1678 L28.4576,15.9879 Z M26.362,14.2078 C26.394,14.0329 26.455,13.8611 26.5488,13.699 C26.6426,13.5365 26.7608,13.3974 26.8957,13.2828 L23.2266,6.9273 C22.9,7.082 22.5429,7.1832 22.1676,7.2212 L22.1676,12.907 L22.1676,14.2078 L23.4916,14.2072 L26.362,14.2078 Z M21.5181,36.3004 L21.5173,36.3004 L21.5173,35.0844 L20.3168,35.0844 L17.7821,35.0844 C17.7478,35.2414 17.6891,35.3956 17.6049,35.5413 C17.5216,35.6865 17.4181,35.8129 17.3013,35.9195 L20.7752,41.9363 C21.0113,41.8538 21.2596,41.7988 21.5181,41.7719 L21.5181,36.3004 Z M21.5173,33.2039 L21.5173,27.5626 C20.6272,27.4697 19.8502,26.9971 19.3502,26.3109 L14.7414,28.9715 L14.7414,28.9715 L13.6531,29.5996 L14.2694,30.6669 L15.7511,33.2342 C16.1612,33.1049 16.6219,33.1412 17.0238,33.3728 C17.4354,33.6101 17.6996,34.0038 17.7866,34.4355 L20.3123,34.4355 L21.5173,34.4355 L21.5173,33.2039 Z M16.7432,36.25 C16.3242,36.3929 15.8486,36.3614 15.4364,36.1227 C15.033,35.8897 14.7703,35.5065 14.6779,35.0844 L7.3126,35.0844 C7.3058,35.1462 7.2976,35.2088 7.2879,35.2706 L19.7899,42.4879 C19.9143,42.3867 20.0458,42.2934 20.1844,42.2118 L16.7432,36.25 Z M14.6728,34.4355 C14.7062,34.2703 14.7657,34.1081 14.855,33.9539 C14.9443,33.7986 15.0569,33.6637 15.1847,33.552 L13.7039,30.9869 L13.0905,29.9248 L12.0255,30.5396 L7.043,33.4159 C7.1927,33.7456 7.2828,34.0903 7.3154,34.4355 L14.6728,34.4355 Z M20.386,14.8561 L17.7753,14.8561 C17.7418,15.0176 17.6823,15.1769 17.5953,15.3272 C17.2047,16.0035 16.3911,16.2842 15.681,16.0273 L14.3221,18.3807 L14.3221,18.3807 L13.7163,19.43 L14.7873,20.0486 L19.3502,22.6828 C19.8511,21.996 20.6281,21.5234 21.5181,21.4305 L21.5181,16.0112 L21.5181,16.0112 L21.5181,14.8561 L20.386,14.8561 Z M14.7666,19.0437 C14.8604,19.3079 14.8805,19.5871 14.8343,19.8527 C14.882,19.5797 14.8573,19.3014 14.7666,19.0437 Z M21.5181,12.9435 L21.5181,7.2204 C21.2857,7.1974 21.0618,7.1506 20.8466,7.0815 L17.2441,13.32 C17.5207,13.5521 17.7024,13.8679 17.7739,14.2072 L20.3622,14.2072 L21.5181,14.2072 L21.5181,12.9435 Z M14.666,14.2078 C14.7003,14.0471 14.7592,13.8894 14.8454,13.7398 C15.2204,13.0909 15.9849,12.8066 16.6732,13.0113 L20.2485,6.8187 C20.0869,6.7271 19.9327,6.6223 19.7899,6.5046 L7.2879,13.7233 C7.314,13.8826 7.3282,14.0448 7.3305,14.2078 L14.666,14.2078 Z M12.7511,21.1022 L11.4257,23.3988 C11.5493,23.5091 11.6573,23.6406 11.7457,23.7917 C12.1275,24.455 11.9838,25.2765 11.4444,25.7743 L12.6947,27.9399 L12.6947,27.9399 L13.3289,29.0378 L14.4227,28.406 L19.0248,25.749 C18.8544,25.3666 18.76,24.9423 18.76,24.4967 C18.76,24.0508 18.8544,23.6273 19.0248,23.2449 L14.4755,20.6186 L13.3921,19.9927 L12.7511,21.1022 Z M13.7447,21.1059 C13.4641,21.196 13.1701,21.2048 12.8926,21.141 L12.8912,21.141 L12.8702,21.1357 L12.8679,21.1351 C13.165,21.2057 13.4663,21.1938 13.7447,21.1059 Z M11.8509,20.3564 L11.85,20.3558 C11.6394,19.9763 11.5991,19.546 11.7057,19.1554 C11.5955,19.561 11.6522,19.9941 11.8509,20.3564 Z M11.742,19.04 L6.7187,16.139 C6.5677,16.3505 6.395,16.5373 6.206,16.7009 L9.878,23.0624 C10.2045,22.9606 10.5498,22.968 10.8647,23.0729 L12.1879,20.7793 L12.1885,20.7793 L12.8302,19.6682 L11.742,19.04 Z M39.7585,11.2169 C41.4604,11.2169 42.8412,12.5974 42.8418,14.3002 C42.8412,15.9463 41.5506,17.291 39.9252,17.3775 L39.9252,31.519 C40.3697,31.5635 40.8124,31.7004 41.224,31.9388 C42.7763,32.8354 43.3083,34.8202 42.4117,36.3719 C41.5157,37.9244 39.53,38.4565 37.9778,37.5596 C37.8244,37.4717 37.6807,37.3722 37.5475,37.2634 L31.2977,40.873 L25.047,44.4809 C25.0739,44.6505 25.0881,44.8245 25.0881,45.0025 C25.0881,46.7946 23.6353,48.2479 21.8424,48.2473002 C20.0498,48.2479 18.597,46.7946 18.597,45.0025 C18.597,44.8254 18.6112,44.6505 18.6387,44.4809 L12.388,40.8722 L6.1382,37.2634 C6.0041,37.3722 5.8607,37.4717 5.7073,37.5596 C4.1548,38.4565 2.17,37.9244 1.274,36.3719 C0.3774,34.8202 0.9094,32.8354 2.4617,31.9388 C2.6159,31.85 2.7735,31.7758 2.9336,31.714 L2.9336,24.4967 L2.9336,17.2791 C2.7735,17.2182 2.615,17.1431 2.4617,17.0552 C0.9094,16.1586 0.3774,14.1729 1.2734,12.6212 C2.1694,11.0687 4.1548,10.5366 5.7073,11.4335 C5.8613,11.522 6.0041,11.6209 6.1374,11.7303 L12.388,8.1218 L18.6387,4.5124 C18.6112,4.3426 18.597,4.1686 18.597,3.9914 C18.597,2.1994 20.0504,0.7458 21.8424,0.7458 C23.6353,0.7458 25.0881,2.1985 25.0881,3.9906 C25.0881,4.1536 25.0762,4.3137 25.0529,4.4691 L37.8653,11.8666 C38.3877,11.4596 39.0448,11.2169 39.7585,11.2169 Z M39.9252,31.519 C39.7086,31.4974 39.4906,31.498 39.2763,31.5198 C39.4906,31.498 39.7086,31.4974 39.9252,31.519 Z M5.2348,17.2786 C5.385,17.2219 5.531,17.1541 5.6722,17.0753 L9.3099,23.3764 C8.7347,23.8691 8.5732,24.7175 8.966,25.397 C9.0556,25.5512 9.1656,25.6844 9.292,25.7961 L5.7363,31.9549 C5.5755,31.8605 5.408,31.78 5.2354,31.7146 L5.2348,17.2786 Z M9.8547,26.1198 C10.1844,26.227 10.5469,26.2284 10.8877,26.1085 L12.1349,28.2696 L12.7662,29.3621 L11.6944,29.9806 L6.7193,32.8532 C6.5832,32.6642 6.429,32.4938 6.2624,32.3421 L9.8547,26.1198 Z" id="Fill-116" fill="url(#linearGradient-3)" mask="url(#mask-2)"></path>
            </g>
        </g>
    </g>
</svg>