<?xml version="1.0" encoding="utf-8"?>
<!-- Generator: Adobe Illustrator 22.1.0, SVG Export Plug-In . SVG Version: 6.00 Build 0)  -->
<svg version="1.1" id="Layer_1" xmlns="http://www.w3.org/2000/svg" xmlns:xlink="http://www.w3.org/1999/xlink" x="0px" y="0px"
	 width="96px" height="96px" viewBox="0 0 96 96" enable-background="new 0 0 96 96" xml:space="preserve">
<path id="Oval-3" fill="#FFFFFF" d="M41.143,82.286C18.422,82.286,0,63.864,0,41.143S18.422,0,41.143,0s41.143,18.422,41.143,41.143
	S63.864,82.286,41.143,82.286z M41.143,74.805c18.59,0,33.662-15.072,33.662-33.662S59.733,7.481,41.143,7.481
	S7.481,22.553,7.481,41.143S22.553,74.805,41.143,74.805z M41.143,67.323c-14.458,0-26.181-11.722-26.181-26.181
	s11.722-26.181,26.181-26.181s26.181,11.722,26.181,26.181S55.601,67.323,41.143,67.323z M41.143,59.846
	c10.327,0,18.703-8.373,18.703-18.703S51.47,22.44,41.143,22.44S22.44,30.816,22.44,41.143S30.816,59.846,41.143,59.846z"/>
<path id="Oval-3_1_" fill="#F5C141" class="coloreable" d="M41.143,51.429c-5.681,0-10.286-4.605-10.286-10.286s4.605-10.286,10.286-10.286
	s10.286,4.605,10.286,10.286S46.824,51.429,41.143,51.429z"/>
<path id="Oval-3_2_" fill="#F5C141" class="coloreable" d="M72,96c-13.255,0-24-10.745-24-24s10.745-24,24-24s24,10.745,24,24S85.255,96,72,96z"/>
</svg>
